<?xml version="1.0" standalone="no"?>
<!DOCTYPE svg PUBLIC "-//W3C//DTD SVG 20010904//EN"
 "http://www.w3.org/TR/2001/REC-SVG-20010904/DTD/svg10.dtd">
<svg version="1.0" xmlns="http://www.w3.org/2000/svg"
 width="1280.000000pt" height="1147.000000pt" viewBox="0 0 1280.000000 1147.000000"
 preserveAspectRatio="xMidYMid meet">
<metadata>
Created by potrace 1.15, written by Peter Selinger 2001-2017
</metadata>
<g transform="translate(0.000000,1147.000000) scale(0.100000,-0.100000)"
fill="#000000" stroke="none">
<path d="M306 11453 c-73 -25 -156 -107 -199 -195 -47 -98 -62 -164 -61 -278
1 -159 48 -276 149 -369 80 -72 147 -101 266 -112 217 -20 361 -94 586 -300
241 -220 308 -284 311 -295 2 -6 -31 -127 -73 -268 -183 -622 -278 -847 -477
-1143 -104 -155 -150 -261 -133 -309 27 -74 111 -84 330 -40 139 28 175 40
175 55 0 6 14 48 31 95 70 193 135 169 133 -49 -1 -110 -22 -208 -61 -293 -36
-76 -65 -107 -138 -140 -136 -64 -137 -174 -3 -247 121 -66 278 -33 356 74
l28 39 12 -172 c12 -184 38 -299 87 -396 22 -44 29 -49 73 -59 156 -33 315
106 464 404 118 236 189 495 208 764 19 262 76 390 184 408 119 19 298 -122
598 -472 82 -97 241 -263 368 -385 217 -210 316 -324 365 -419 70 -140 77
-268 21 -435 -23 -70 -36 -128 -36 -162 0 -29 -9 -151 -21 -271 -27 -286 -23
-578 10 -691 63 -215 184 -337 398 -402 l72 -22 31 -78 c166 -432 -45 -865
-570 -1166 -47 -27 -137 -87 -200 -135 -154 -115 -328 -231 -670 -444 -339
-211 -513 -326 -675 -447 -66 -49 -163 -114 -215 -145 -163 -96 -255 -183
-488 -463 -283 -339 -423 -452 -650 -524 -69 -22 -102 -26 -196 -26 -220 0
-422 -81 -576 -233 -166 -163 -156 -337 26 -453 94 -60 148 -76 251 -75 107 2
154 -13 177 -56 8 -16 27 -72 41 -123 34 -120 54 -159 107 -205 145 -125 322
-170 441 -111 126 61 205 167 359 472 62 123 115 224 118 224 3 0 18 -21 35
-48 16 -26 75 -92 130 -147 95 -94 170 -152 459 -356 138 -97 289 -236 351
-324 81 -114 114 -199 140 -359 20 -121 44 -156 100 -142 72 18 154 146 163
253 4 51 7 61 15 47 81 -154 254 -39 286 190 19 132 -19 239 -115 324 -54 49
-55 51 -34 62 39 21 124 23 203 6 97 -22 219 -70 483 -190 117 -53 258 -111
315 -131 l104 -34 3 28 c5 48 -26 169 -62 244 -64 130 -168 233 -386 380 -268
180 -370 264 -459 376 -46 60 -106 169 -96 179 3 3 45 8 93 10 118 6 228 -23
507 -133 500 -197 492 -195 845 -205 324 -10 314 -8 936 -149 312 -71 462 -91
669 -90 94 0 193 4 220 9 28 5 235 14 460 19 433 11 549 19 735 52 174 30 310
72 450 137 43 20 89 34 107 33 55 -3 224 27 310 54 45 14 175 64 290 111 261
108 354 138 469 154 155 21 293 -18 400 -113 27 -24 81 -64 120 -90 85 -56
157 -130 219 -227 63 -97 110 -200 189 -420 100 -275 164 -399 258 -501 131
-143 329 -217 418 -157 58 39 95 128 126 303 35 202 64 265 116 252 13 -3 64
-18 113 -32 440 -125 906 -139 1167 -33 66 27 175 96 210 134 29 32 98 134 98
146 0 12 -120 45 -242 68 -220 41 -399 101 -466 156 l-24 19 41 33 c46 37 75
85 66 111 -10 32 -59 68 -178 131 -218 115 -272 169 -307 305 -49 193 -126
216 -390 117 -174 -66 -238 -82 -325 -82 -131 0 -147 10 -361 224 -105 105
-304 318 -442 473 -445 498 -622 670 -836 810 -315 206 -636 488 -1101 967
l-222 229 3 246 c2 135 6 271 10 301 19 172 114 270 262 270 50 0 71 5 105 26
189 119 299 302 342 568 17 106 20 348 5 497 -9 90 -52 456 -64 545 -4 29 5
39 116 140 67 60 238 233 382 384 484 511 672 695 876 858 l65 52 7 -102 c27
-421 195 -794 574 -1278 124 -158 150 -190 156 -190 1 0 1 24 0 54 -7 102 36
144 198 201 126 43 150 58 150 89 0 44 -10 56 -47 56 -109 0 -206 140 -235
339 -9 62 -9 85 3 121 25 79 68 64 144 -50 63 -94 209 -221 235 -205 16 10 12
32 -30 188 -57 211 -70 347 -34 347 26 0 81 -70 143 -184 78 -140 115 -188
144 -184 31 4 62 57 87 150 l23 83 -23 65 c-12 36 -50 130 -85 210 -35 80 -93
215 -130 300 -129 298 -175 476 -175 679 0 127 17 237 50 328 11 28 24 89 30
135 15 122 35 174 89 228 77 77 155 86 393 46 79 -14 168 -28 198 -31 74 -9
165 9 205 39 65 50 145 246 144 351 -1 115 -60 239 -167 356 -110 119 -248
215 -557 386 -189 105 -270 133 -390 133 -113 0 -168 -22 -245 -100 -72 -72
-99 -121 -195 -355 -31 -77 -75 -173 -97 -213 -49 -90 -135 -184 -202 -223
-49 -28 -55 -29 -186 -29 -288 0 -469 50 -1000 275 -146 62 -309 129 -362 149
-54 20 -137 62 -185 93 -110 71 -370 205 -528 273 -288 124 -847 327 -935 340
-273 39 -718 64 -960 55 -706 -27 -1233 -157 -1730 -428 -167 -90 -373 -190
-490 -237 -218 -87 -545 -176 -825 -225 -196 -35 -257 -47 -395 -81 -106 -26
-130 -28 -305 -28 -174 0 -198 2 -290 27 -55 15 -143 48 -195 74 -80 39 -109
61 -185 137 -135 136 -198 270 -226 485 -13 101 -50 186 -109 254 -53 60 -95
85 -165 98 -76 14 -144 2 -353 -61 -90 -27 -200 -55 -246 -62 l-83 -12 -64 49
c-125 94 -248 125 -353 88z m419 -204 c66 -11 194 -36 285 -57 l164 -37 12
-40 c31 -110 103 -220 311 -477 168 -207 213 -291 213 -392 l0 -52 -53 -30
-53 -31 -64 60 c-213 197 -444 327 -943 530 -142 58 -265 114 -273 124 -8 10
-35 60 -61 112 -42 82 -48 101 -48 156 0 54 4 67 25 90 71 77 209 89 485 44z
m746 -10 c41 -44 78 -127 149 -334 72 -211 145 -366 193 -415 31 -32 64 -107
52 -119 -39 -38 -349 390 -495 684 -68 135 -73 164 -32 194 43 32 98 28 133
-10z m5519 -24 c251 -34 502 -94 707 -171 169 -63 453 -194 908 -421 450 -223
615 -295 880 -382 254 -83 289 -90 663 -126 493 -48 659 -92 829 -219 34 -26
83 -75 109 -109 45 -59 104 -172 104 -199 0 -7 -27 -83 -61 -168 -166 -422
-202 -556 -203 -760 0 -170 23 -269 100 -422 37 -75 58 -132 69 -189 17 -93
20 -159 5 -159 -15 0 -95 174 -135 294 -44 133 -63 223 -57 264 12 84 -76 369
-183 594 -59 125 -64 104 -11 -41 9 -24 16 -49 16 -55 0 -6 -26 -24 -58 -41
-75 -38 -189 -153 -229 -230 -90 -173 -98 -450 -23 -740 23 -88 95 -297 134
-390 49 -117 3 -73 -94 90 -153 257 -233 500 -196 590 18 43 21 165 6 246 -28
149 -138 290 -287 366 -168 87 -319 125 -743 187 l-295 43 -170 68 c-291 115
-712 303 -1218 544 l-129 61 -156 15 c-87 8 -269 26 -407 40 -619 64 -979 15
-1259 -171 -36 -24 -98 -47 -206 -78 -85 -24 -292 -89 -460 -144 -576 -190
-727 -223 -1106 -242 -266 -13 -341 -30 -799 -182 -362 -119 -537 -151 -706
-128 -72 9 -96 9 -122 -1 -54 -21 -88 -50 -122 -104 -68 -106 -91 -214 -125
-587 -11 -124 -27 -261 -35 -305 -16 -87 -54 -203 -66 -203 -15 0 -22 74 -15
169 4 53 22 227 41 386 19 160 37 342 41 405 6 104 9 119 36 162 16 25 32 63
35 84 8 46 -12 64 -72 64 -53 0 -69 14 -85 75 -28 105 -59 149 -81 114 -5 -8
-22 -75 -39 -149 -62 -271 -96 -360 -155 -407 -29 -23 -35 -35 -35 -66 0 -58
-21 -179 -35 -207 l-14 -25 -15 37 c-23 54 -46 241 -53 434 -6 165 -5 172 14
182 58 31 138 202 181 386 30 132 38 356 13 414 -36 85 -112 37 -204 -130 -18
-32 -35 -58 -38 -58 -14 0 15 98 47 165 90 183 301 395 489 488 126 63 157 68
425 77 350 12 517 34 1145 154 215 41 425 80 468 86 66 11 96 23 200 82 167
96 538 286 672 346 346 154 701 257 1005 291 52 6 200 13 329 16 128 2 236 7
240 11 11 11 471 -5 591 -21z m4360 -335 c76 -26 128 -52 265 -130 175 -100
296 -155 387 -174 33 -7 70 -73 94 -167 38 -147 -50 -253 -228 -278 -110 -15
-219 5 -331 61 l-58 29 -77 -21 c-51 -14 -99 -37 -147 -69 -98 -67 -128 -81
-174 -81 -31 0 -44 6 -61 28 -48 60 -2 211 92 305 60 60 108 86 188 101 52 11
56 14 78 58 19 38 21 51 12 68 -15 28 -50 40 -114 40 -117 0 -237 -65 -293
-160 -18 -30 -33 -63 -33 -73 0 -10 -25 -52 -56 -93 -87 -115 -122 -130 -109
-46 9 60 79 271 156 466 70 180 50 166 234 161 80 -2 128 -9 175 -25z m-5053
-1526 c43 -32 51 -59 59 -195 8 -143 0 -180 -50 -237 -44 -50 -113 -77 -273
-108 -388 -74 -776 -244 -1201 -525 -214 -143 -350 -247 -383 -295 -46 -67
-133 -152 -163 -160 -78 -19 -92 122 -36 346 69 279 229 485 507 650 57 34
221 117 366 184 271 127 366 177 477 254 56 39 77 47 150 59 47 7 132 22 190
33 145 27 316 24 357 -6z m745 -53 c42 -11 100 -32 129 -46 29 -15 102 -37
163 -50 493 -103 878 -406 1005 -790 59 -179 52 -515 -11 -515 -7 0 -98 87
-203 193 -328 332 -493 420 -1284 688 -157 53 -243 101 -311 175 -47 52 -60
80 -60 136 0 164 309 276 572 209z m-5758 -163 c28 -94 13 -379 -28 -556 -29
-122 -62 -181 -103 -182 -21 0 -15 31 22 134 53 146 48 172 -35 178 -40 3 -45
6 -48 29 -2 15 12 53 32 92 19 36 42 93 51 127 19 74 54 170 68 188 15 19 34
14 41 -10z m2572 -157 c71 -32 95 -91 75 -179 -9 -35 -9 -61 -1 -97 15 -65 15
-162 0 -180 -25 -30 -73 6 -248 182 -148 149 -173 179 -168 198 19 76 236 124
342 76z m5191 -47 c91 -18 197 -64 235 -101 50 -48 42 -64 -115 -223 -79 -80
-160 -172 -181 -205 -51 -79 -154 -180 -208 -205 -24 -11 -65 -20 -92 -20 -41
0 -53 5 -81 33 -71 71 -67 231 9 412 15 35 16 48 5 102 -22 112 20 180 129
209 66 18 209 17 299 -2z m2086 -121 c34 -55 93 -187 202 -453 53 -129 115
-274 138 -322 24 -49 40 -88 36 -88 -14 0 -213 216 -270 292 -71 96 -143 239
-165 328 -17 65 -16 242 0 268 13 22 36 12 59 -25z m-4428 -106 c594 -183
1013 -404 1316 -694 93 -89 97 -96 143 -203 201 -475 328 -980 401 -1595 8
-71 17 -147 20 -167 8 -58 -13 -178 -41 -235 -31 -64 -97 -124 -181 -164 -34
-16 -158 -54 -275 -84 -236 -59 -322 -88 -393 -130 -107 -62 -183 -173 -207
-303 l-11 -60 -37 24 c-57 38 -95 46 -121 25 -23 -18 -38 -78 -39 -153 0 -96
-31 -121 -88 -73 -17 14 -32 25 -35 25 -2 0 -7 -18 -11 -40 -47 -293 -309
-381 -456 -153 l-27 43 -5 -83 c-5 -97 -27 -145 -89 -201 -23 -21 -65 -49 -94
-62 -53 -25 -169 -53 -214 -54 -13 0 -41 -16 -62 -35 -43 -39 -60 -43 -80 -18
-21 25 -15 145 11 223 34 102 38 106 120 114 76 7 124 25 134 51 9 24 -10 63
-73 150 -104 144 -127 215 -93 290 l19 40 0 -48 c0 -92 67 -142 189 -141 58 1
82 6 135 32 71 34 92 51 132 103 71 94 65 198 -33 544 -64 225 -90 328 -90
359 0 63 42 34 136 -95 41 -56 71 -85 106 -104 101 -55 85 -2 -70 233 -56 83
-99 152 -96 152 3 0 40 -31 82 -69 103 -93 171 -141 278 -194 194 -97 345
-132 559 -132 172 1 258 20 380 83 88 46 199 154 247 242 71 129 115 325 98
443 -28 196 -180 290 -467 288 -211 -1 -370 -35 -703 -151 -452 -159 -519
-181 -625 -206 -146 -34 -365 -43 -475 -20 -130 28 -263 101 -372 204 -49 47
-68 57 -140 79 -149 43 -440 112 -553 129 -127 19 -376 22 -447 5 -150 -35
-243 -103 -294 -213 -28 -61 -29 -68 -28 -213 1 -134 3 -158 26 -223 92 -259
333 -401 679 -402 314 0 581 100 804 300 50 45 102 88 118 96 26 14 27 13 27
-8 0 -12 -42 -101 -94 -197 -100 -187 -118 -231 -94 -231 15 0 69 37 119 82
15 12 40 48 55 78 37 70 125 163 150 158 30 -5 40 -50 25 -121 -21 -103 -72
-200 -149 -281 -183 -197 -205 -410 -72 -681 27 -55 79 -139 115 -187 72 -95
92 -145 101 -253 5 -56 3 -78 -10 -103 -30 -59 -92 -35 -132 52 -28 61 -33
178 -9 245 40 113 -69 -19 -130 -158 -47 -106 -83 -161 -108 -161 -35 1 -92
59 -144 148 -28 47 -29 48 -70 27 -54 -27 -85 -28 -133 -3 -67 35 -95 96 -95
208 0 47 4 106 8 131 8 46 7 46 -17 42 -70 -14 -146 53 -286 252 -112 159
-214 261 -305 306 -63 31 -79 34 -165 36 -83 2 -102 6 -156 33 -351 173 -384
664 -94 1417 32 84 62 174 65 200 32 235 149 460 335 643 157 154 236 204 685
438 432 224 633 308 840 351 142 29 144 29 320 27 159 -3 161 -3 310 -49z
m-4305 -32 c16 -19 -2 -65 -25 -65 -22 0 -28 21 -16 53 12 31 23 34 41 12z
m1076 -25 c261 -130 594 -623 594 -880 0 -83 3 -83 -110 -24 -150 78 -339 249
-503 455 -90 115 -247 342 -247 359 0 24 43 82 74 101 48 29 120 25 192 -11z
m-1297 1 c11 -7 11 -18 1 -62 -7 -30 -19 -65 -27 -78 -15 -23 -16 -24 -29 -6
-16 22 -18 108 -4 136 11 20 36 24 59 10z m7305 -130 c24 -26 15 -78 -30 -171
-78 -163 -287 -424 -403 -502 -25 -17 -109 -93 -186 -168 -168 -164 -306 -290
-316 -290 -4 0 -15 20 -24 45 -26 68 -17 138 33 238 72 146 168 261 492 590
154 158 208 205 255 229 102 53 151 60 179 29z m-7226 -48 c-22 -50 -87 -137
-96 -128 -5 5 104 175 113 175 2 0 -6 -21 -17 -47z m-660 -76 c2 -20 -1 -37
-6 -37 -13 0 -30 51 -24 68 8 25 27 5 30 -31z m9136 -58 c35 -64 77 -186 70
-204 -8 -21 -44 -29 -59 -14 -17 19 -92 205 -100 251 -4 21 -4 45 -1 55 6 14
10 13 35 -11 16 -15 41 -50 55 -77z m-157 -31 c14 -18 33 -101 32 -140 -1 -31
-2 -30 -29 27 -37 78 -47 125 -27 125 8 0 19 -6 24 -12z m-8351 -136 c4 -25 4
-93 1 -151 -14 -232 -77 -452 -151 -521 -15 -13 -61 -77 -103 -142 -41 -66
-78 -117 -80 -114 -3 3 31 96 75 208 44 112 89 230 100 263 43 126 66 251 52
290 -8 24 24 154 52 209 19 37 21 39 34 22 7 -10 16 -39 20 -64z m-480 -49
c-4 -60 -13 -141 -19 -182 -10 -62 -17 -77 -40 -94 -38 -29 -52 -12 -50 61 2
87 53 270 85 310 26 31 31 10 24 -95z m6804 -135 c0 -48 -16 -42 -26 10 -5 25
-3 32 10 32 12 0 16 -10 16 -42z m2174 -18 c83 -40 123 -98 97 -139 -8 -12
-14 -12 -40 -1 -78 32 -151 110 -137 146 7 19 32 18 80 -6z m-9270 -42 c-10
-34 -32 -76 -44 -83 -19 -12 -10 52 11 79 25 32 43 34 33 4z m501 -331 c-9
-49 -43 -103 -57 -89 -16 16 0 81 28 109 31 31 37 26 29 -20z m-153 -280 c-31
-71 -66 -81 -37 -11 15 37 43 69 53 60 2 -3 -5 -24 -16 -49z m2808 -586 c0
-10 13 -36 29 -58 67 -93 201 -120 489 -102 193 12 242 8 242 -20 0 -10 -44
-59 -100 -111 -108 -99 -150 -120 -239 -120 -77 0 -181 28 -271 71 -161 77
-250 168 -250 255 0 37 5 47 41 78 43 36 59 38 59 7z m3337 -89 c8 -34 -11
-103 -44 -161 -85 -145 -280 -243 -488 -244 -102 -1 -180 18 -265 65 -65 35
-160 139 -160 174 0 21 5 24 37 24 20 0 109 -14 197 -31 202 -40 339 -44 401
-12 22 12 59 44 83 71 56 67 123 121 169 137 45 16 61 10 70 -23z m-1537 -445
c27 -61 43 -170 37 -251 -4 -66 -2 -76 31 -141 148 -295 96 -350 -180 -189
-66 39 -85 45 -132 45 -59 0 -128 -25 -182 -66 -44 -34 -51 -31 -20 5 64 77
107 208 161 493 16 81 32 147 36 147 18 0 39 -50 49 -115 5 -39 10 -137 10
-220 0 -135 8 -192 23 -169 3 5 17 50 32 99 21 71 29 121 34 231 5 109 11 147
24 168 15 22 21 25 38 15 12 -6 29 -29 39 -52z m-280 -1127 c0 -33 -2 -60 -5
-60 -13 0 -26 58 -20 87 10 54 25 37 25 -27z m-1261 -51 c6 -18 11 -39 11 -48
0 -30 -21 -91 -30 -86 -12 8 -23 100 -15 135 8 39 20 38 34 -1z m2701 -104 c0
-42 -31 -106 -49 -103 -26 5 -38 71 -17 102 23 36 66 36 66 1z m-2922 -38 c50
-53 118 -259 141 -427 16 -120 121 -364 233 -544 179 -287 433 -522 713 -661
88 -44 96 -51 126 -104 40 -72 77 -111 105 -111 14 0 50 25 92 64 79 73 123
91 190 81 36 -5 53 -15 77 -43 57 -67 87 -92 112 -92 36 0 83 32 123 82 107
135 183 193 262 204 43 6 55 16 167 128 329 330 536 692 625 1089 33 146 60
217 101 264 56 65 95 14 95 -127 0 -111 -33 -208 -95 -280 -50 -58 -182 -290
-375 -660 -68 -129 -157 -296 -198 -370 -137 -246 -303 -493 -339 -504 -38
-12 -373 -65 -472 -75 -57 -6 -160 -11 -230 -11 -305 0 -517 72 -659 225 -180
192 -892 1546 -892 1695 0 85 37 200 64 200 7 0 22 -10 34 -23z m362 -121 c0
-41 -28 -136 -40 -136 -31 0 -43 145 -14 174 24 25 54 4 54 -38z m2372 -89
c15 -51 16 -61 3 -104 -34 -110 -55 -93 -55 44 0 50 3 99 6 108 11 28 28 10
46 -48z m-166 -218 c6 -69 4 -82 -19 -133 -42 -92 -64 -67 -47 55 15 108 37
176 51 162 4 -4 11 -42 15 -84z m-2078 30 c15 -50 10 -120 -12 -174 -24 -57
-36 -33 -36 69 0 156 20 199 48 105z m276 -101 c35 -98 36 -108 3 -171 -56
-108 -87 -94 -87 41 0 148 49 224 84 130z m1559 -76 c28 -52 28 -52 13 -111
-22 -86 -44 -133 -58 -129 -32 11 -49 216 -23 281 12 30 39 15 68 -41z m-1224
-78 c27 -35 36 -119 21 -213 -11 -69 -15 -80 -40 -94 -38 -23 -59 -21 -103 8
-99 68 -101 207 -3 293 47 41 95 44 125 6z m930 -3 c106 -114 41 -411 -90
-411 -12 0 -25 12 -35 34 -14 29 -15 51 -6 168 10 136 28 202 59 226 26 19 42
15 72 -17z m661 -16 c10 -12 9 -24 -5 -60 -24 -65 -55 -57 -55 15 0 16 3 35 6
44 8 20 38 21 54 1z m-3089 -14 c61 -50 -7 -233 -139 -372 -36 -39 -84 -81
-107 -95 -65 -37 -273 -106 -341 -112 -81 -6 -104 7 -104 57 0 93 217 324 385
408 27 14 70 40 95 56 48 33 145 76 171 77 9 0 27 -8 40 -19z m1709 -7 c33
-20 76 -84 93 -139 19 -64 16 -205 -6 -238 -43 -65 -112 -55 -164 24 -26 39
-28 52 -31 153 -6 183 28 246 108 200z m439 -43 c27 -27 35 -78 28 -186 -7
-125 -29 -168 -92 -184 -50 -13 -66 -8 -104 33 -70 74 -7 286 100 339 43 21
45 21 68 -2z m-1233 -87 c26 -43 26 -49 13 -73 -8 -14 -21 -26 -29 -26 -18 0
-39 56 -39 108 -1 52 22 48 55 -9z m2021 -71 c-10 -95 -50 -193 -78 -193 -17
0 -39 60 -39 105 0 83 42 145 99 145 23 0 24 -2 18 -57z m1148 13 c147 -69
322 -231 380 -351 51 -107 27 -196 -62 -226 -76 -25 -146 23 -282 190 -43 53
-89 105 -101 116 -13 11 -42 60 -66 109 -52 106 -58 165 -21 191 28 20 61 13
152 -29z m-614 -67 c17 -11 44 -42 62 -68 18 -26 73 -82 124 -125 251 -210
329 -404 201 -499 -65 -48 -106 -57 -393 -93 -71 -8 -165 -26 -208 -40 -48
-15 -103 -24 -141 -24 -54 0 -66 3 -86 25 -20 21 -24 36 -23 78 1 80 44 185
170 423 26 49 68 132 92 183 71 150 130 191 202 140z m-2976 -88 c92 -41 175
-174 264 -421 27 -74 59 -159 71 -189 l21 -53 -68 7 c-118 12 -404 63 -507 90
-55 14 -133 40 -174 57 -84 35 -162 101 -162 137 0 52 63 123 156 177 27 15
83 60 125 101 114 109 187 134 274 94z m649 -39 l31 -43 -20 -36 c-11 -20 -25
-38 -32 -40 -18 -6 -42 38 -49 90 -12 89 19 102 70 29z m1517 -38 c15 -69 10
-120 -17 -160 -46 -68 -64 -67 -64 4 0 50 19 133 39 171 16 29 34 22 42 -15z
m-1271 -93 c13 -86 8 -124 -18 -119 -22 4 -60 62 -73 111 -15 58 0 87 45 87
l34 0 12 -79z m214 -46 c16 -52 17 -66 6 -127 -11 -64 -23 -88 -38 -73 -21 21
-20 269 2 262 6 -2 19 -30 30 -62z m823 -32 c-5 -84 -33 -193 -51 -205 -19
-13 -54 -9 -71 9 -33 32 6 166 69 241 47 55 60 45 53 -45z m-284 -62 c-1 -135
-10 -158 -64 -186 -42 -22 -59 -7 -59 55 0 91 79 269 114 257 7 -3 10 -47 9
-126z m-350 67 c53 -114 59 -148 36 -215 -24 -75 -59 1 -66 150 -6 103 3 122
30 65z m-2618 -68 c103 -25 169 -52 384 -159 292 -146 412 -187 626 -211 231
-27 406 -88 825 -290 328 -158 419 -195 610 -248 205 -58 259 -66 429 -59 213
8 351 46 696 189 435 182 567 221 820 247 130 13 243 46 435 127 420 177 508
205 675 211 142 6 215 -9 312 -63 90 -50 183 -139 183 -174 0 -97 45 -152 179
-219 163 -83 173 -112 72 -213 l-58 -58 31 -4 c17 -3 53 -7 81 -11 67 -7 164
-54 212 -102 44 -44 173 -228 173 -247 0 -25 -60 -102 -107 -137 -102 -77
-202 -115 -513 -194 -271 -68 -393 -107 -480 -150 -115 -57 -388 -139 -665
-199 -218 -48 -1154 -201 -1345 -220 -85 -9 -230 -19 -321 -23 l-166 -6 -84
30 c-137 50 -190 54 -574 51 -335 -3 -353 -2 -428 19 -101 29 -154 53 -235
107 -103 68 -133 71 -521 68 -356 -3 -431 3 -561 44 -77 24 -198 91 -260 144
-27 23 -54 33 -120 45 -230 44 -478 155 -935 421 -405 235 -562 310 -781 374
-60 18 -116 36 -124 42 -10 6 55 7 186 4 l201 -6 -14 52 c-33 125 28 242 185
355 37 27 132 90 212 141 80 50 177 119 215 153 195 171 348 218 550 169z
m-1487 -1266 c61 -31 76 -44 74 -59 -6 -42 -104 -224 -165 -305 -35 -47 -131
-161 -212 -255 -236 -270 -314 -387 -371 -553 l-33 -97 -63 -29 c-46 -22 -81
-31 -138 -34 -129 -7 -173 25 -309 226 -80 118 -164 207 -223 238 -16 8 -71
24 -121 35 -116 25 -217 73 -236 113 -12 26 -12 33 0 55 23 41 101 87 189 110
68 19 96 21 168 16 206 -16 353 46 683 287 346 253 444 301 602 295 67 -3 88
-9 155 -43z m8462 -379 c69 -74 228 -162 542 -301 257 -113 410 -208 477 -295
l20 -26 -125 -87 c-204 -145 -289 -255 -313 -406 -6 -36 -8 -92 -5 -125 7 -74
-5 -109 -48 -135 -45 -27 -92 -25 -163 8 -127 61 -247 213 -231 294 35 180 1
269 -221 570 -124 168 -161 231 -175 300 -10 46 -9 59 7 91 22 46 66 81 142
113 32 13 61 24 64 24 3 0 16 -11 29 -25z m-8037 -307 c68 -41 153 -134 145
-158 -5 -16 -87 42 -173 122 -109 102 -100 113 28 36z m364 13 c77 -37 167
-97 403 -271 351 -260 527 -369 688 -427 l67 -24 -84 6 c-102 7 -205 39 -321
102 -112 60 -206 126 -427 300 -215 169 -316 242 -400 291 -34 20 -60 39 -57
44 11 17 71 7 131 -21z m223 -288 c25 -13 69 -45 96 -71 28 -26 65 -55 82 -64
43 -23 41 -45 -3 -54 -52 -9 -95 2 -177 47 -83 46 -113 71 -135 113 -15 28
-14 31 7 48 28 23 63 17 130 -19z m-244 -121 c35 -26 62 -48 60 -50 -10 -9
-297 155 -311 178 -12 19 191 -85 251 -128z m-465 86 c8 -7 21 -21 28 -30 10
-14 9 -18 -9 -28 -27 -14 -56 -5 -63 21 -11 43 13 62 44 37z m63 -127 c21 -23
18 -49 -7 -65 -22 -14 -37 6 -37 52 0 37 18 42 44 13z m9695 -5 l22 -24 -24
-27 c-33 -39 -57 -29 -57 23 0 59 21 69 59 28z m-8212 -37 c90 -28 205 -87
200 -102 -3 -8 -28 -12 -73 -11 -69 0 -189 36 -286 85 -116 59 -4 78 159 28z
m8213 -124 c182 -22 440 -78 440 -96 0 -11 -60 -29 -94 -29 -110 0 -484 97
-494 128 -5 15 -3 15 148 -3z m-9139 -61 c129 -38 255 -129 302 -219 35 -69
63 -245 38 -245 -12 0 -45 46 -113 155 -80 127 -118 169 -175 190 -118 44
-220 106 -207 126 9 14 96 10 155 -7z m-336 -38 c58 -25 156 -97 221 -163 67
-67 105 -134 128 -223 61 -238 -5 -204 -172 89 -57 98 -81 129 -135 175 -122
104 -143 164 -42 122z"/>
</g>
</svg>
